<mxfile host="65bd71144e">
    <diagram id="sWgCjdYztQFh1ezxrF-R" name="test3">
        <mxGraphModel dx="1130" dy="730" grid="1" gridSize="10" guides="1" tooltips="1" connect="1" arrows="1" fold="1" page="1" pageScale="1" pageWidth="827" pageHeight="1169" math="0" shadow="0">
            <root>
                <mxCell id="0"/>
                <mxCell id="1" parent="0"/>
                <mxCell id="2" value="d" style="whiteSpace=wrap;html=1;aspect=fixed;" parent="1" vertex="1">
                    <mxGeometry x="80" y="60" width="80" height="80" as="geometry"/>
                </mxCell>
                <mxCell id="3" value="" style="endArrow=classic;startArrow=classic;html=1;exitX=1;exitY=0.5;exitDx=0;exitDy=0;entryX=0;entryY=0.5;entryDx=0;entryDy=0;" parent="1" source="2" target="4" edge="1">
                    <mxGeometry width="50" height="50" relative="1" as="geometry">
                        <mxPoint x="320" y="160" as="sourcePoint"/>
                        <mxPoint x="380" y="140" as="targetPoint"/>
                    </mxGeometry>
                </mxCell>
                <mxCell id="_qDx2sLIJq7Mwld7TUjB-5" style="edgeStyle=none;html=1;exitX=1;exitY=0.5;exitDx=0;exitDy=0;entryX=0;entryY=0.5;entryDx=0;entryDy=0;" edge="1" parent="1" source="4" target="_qDx2sLIJq7Mwld7TUjB-4">
                    <mxGeometry relative="1" as="geometry"/>
                </mxCell>
                <mxCell id="4" value="f" style="ellipse;whiteSpace=wrap;html=1;" parent="1" vertex="1">
                    <mxGeometry x="310" y="60" width="120" height="80" as="geometry"/>
                </mxCell>
                <mxCell id="jEQN0c8lupLUuRs0BYHV-4" value="test3" style="text;html=1;align=center;verticalAlign=middle;resizable=0;points=[];autosize=1;strokeColor=none;fillColor=none;" parent="1" vertex="1">
                    <mxGeometry x="215" y="30" width="50" height="30" as="geometry"/>
                </mxCell>
                <mxCell id="_qDx2sLIJq7Mwld7TUjB-4" value="g" style="whiteSpace=wrap;html=1;aspect=fixed;" vertex="1" parent="1">
                    <mxGeometry x="580" y="60" width="80" height="80" as="geometry"/>
                </mxCell>
            </root>
        </mxGraphModel>
    </diagram>
</mxfile>